<?xml version="1.0" encoding="UTF-8"?>
<svg version="1.1" xmlns="http://www.w3.org/2000/svg" width="300" height="271">
<path d="M0 0 C1.0806221 -0.00860046 2.1612442 -0.01720093 3.27461243 -0.02606201 C4.46057007 -0.03032196 5.64652771 -0.03458191 6.86842346 -0.03897095 C8.1175502 -0.04714844 9.36667694 -0.05532593 10.65365601 -0.06375122 C14.80019308 -0.08862339 18.94669359 -0.10528502 23.09327698 -0.11953735 C24.52408924 -0.12489929 25.95490144 -0.13027681 27.38571358 -0.13566971 C33.34347249 -0.15730292 39.30122874 -0.17603422 45.25901699 -0.1872921 C53.77550478 -0.20349361 62.29153359 -0.23657296 70.80784839 -0.29369295 C76.80634815 -0.33254074 82.80472597 -0.35194269 88.80334812 -0.35721266 C92.37982383 -0.36084825 95.95580985 -0.3726743 99.53214836 -0.4053154 C103.53383461 -0.44131265 107.53455058 -0.43698785 111.53639221 -0.42959595 C113.28800156 -0.45420395 113.28800156 -0.45420395 115.07499695 -0.47930908 C126.8253046 -0.39093235 136.13599172 3.50054405 144.56886292 11.65927124 C148.19720272 15.74415182 150.80996016 20.1809201 153.40968323 24.96640015 C153.99177551 25.99974487 154.5738678 27.0330896 155.17359924 28.0977478 C156.41624929 30.30496314 157.65152331 32.51634519 158.87989807 34.73153687 C161.77731293 39.93737658 164.74854868 45.10070152 167.71336365 50.26831055 C169.06700452 52.63068148 170.41549445 54.99597321 171.7638855 57.36134338 C175.9361005 64.68004966 180.1353626 71.98290249 184.34718323 79.27890015 C184.9532843 80.33045288 185.55938538 81.38200562 186.18385315 82.46542358 C189.07551887 87.478719 191.9755505 92.48675974 194.90026855 97.48083496 C195.94304469 99.26248547 196.98326989 101.04560062 198.02272034 102.82919312 C199.32703568 105.06556925 200.63615338 107.29915414 201.95094299 109.52938843 C207.0299872 118.25515723 210.31347803 125.30388222 210.22218323 135.52890015 C210.2421637 136.31522827 210.26214417 137.1015564 210.2827301 137.91171265 C210.2734244 149.30189449 204.11847737 158.46930636 198.53468323 168.02890015 C197.82452143 169.25604065 197.11506339 170.48358867 196.40626526 171.71151733 C194.93574287 174.25796843 193.46223609 176.80265776 191.98683167 179.34628296 C189.86444296 183.01010518 187.76231193 186.68519496 185.66749573 190.36483765 C185.33481689 190.9491304 185.00213806 191.53342316 184.65937805 192.13542175 C183.99196832 193.30775213 183.32458942 194.48010007 182.65724182 195.65246582 C176.7718743 205.98552772 170.83124543 216.28548774 164.80299377 226.53598022 C161.99237447 231.32383049 159.23051927 236.12893661 156.56202698 240.99765015 C148.74200979 255.21619655 141.83244194 265.80464724 125.78468323 271.15390015 C124.00943686 271.24850227 122.23082651 271.28451873 120.45306396 271.28761292 C118.79388191 271.29401039 118.79388191 271.29401039 117.10118103 271.30053711 C115.28005295 271.29985733 115.28005295 271.29985733 113.4221344 271.29916382 C112.14386276 271.30252243 110.86559113 271.30588104 109.54858398 271.30934143 C106.04020142 271.31818153 102.53184324 271.32051958 99.02345061 271.32115722 C96.8308504 271.32186786 94.6382564 271.32400247 92.44565773 271.32665443 C84.79425793 271.33590875 77.14287555 271.33998932 69.49147034 271.33920288 C62.36319626 271.33860246 55.23499795 271.34914711 48.10674304 271.36494654 C41.98434283 271.37803215 35.86196735 271.38338633 29.73955327 271.38274747 C26.08408497 271.38249273 22.42868395 271.38533057 18.7732296 271.39592552 C14.69390583 271.40742583 10.61475117 271.40285343 6.53541565 271.39682007 C5.32740295 271.40243958 4.11939026 271.40805908 2.87477112 271.41384888 C1.76019028 271.40965439 0.64560944 271.4054599 -0.50274658 271.40113831 C-1.46673276 271.40168307 -2.43071894 271.40222784 -3.42391682 271.40278912 C-12.7204141 270.57388761 -20.55584457 264.30110526 -27.21531677 258.15390015 C-27.21531677 257.49390015 -27.21531677 256.83390015 -27.21531677 256.15390015 C-27.87531677 255.82390015 -28.53531677 255.49390015 -29.21531677 255.15390015 C-30.29631596 253.41914018 -31.3079024 251.64062706 -32.27781677 249.84140015 C-33.06865662 248.39313843 -33.06865662 248.39313843 -33.87547302 246.9156189 C-34.99458236 244.60888333 -35.73422446 242.65439228 -36.21531677 240.15390015 C-36.87531677 240.15390015 -37.53531677 240.15390015 -38.21531677 240.15390015 C-38.6510199 239.25929077 -39.08672302 238.3646814 -39.53562927 237.44296265 C-42.66880224 231.06139394 -45.88814564 224.82796768 -49.62156677 218.77108765 C-51.88316054 215.05719592 -54.02066519 211.27427981 -56.16624451 207.49276733 C-57.84748513 204.53430201 -59.54301337 201.58684567 -61.28172302 198.66171265 C-62.23885193 197.04909546 -62.23885193 197.04909546 -63.21531677 195.40390015 C-63.79281677 194.4396814 -64.37031677 193.47546265 -64.96531677 192.48202515 C-66.21531677 190.15390015 -66.21531677 190.15390015 -66.21531677 188.15390015 C-66.87531677 187.82390015 -67.53531677 187.49390015 -68.21531677 187.15390015 C-69.38182669 185.3383086 -70.470568 183.47271434 -71.52781677 181.59140015 C-71.86176453 180.99730347 -72.19571228 180.40320679 -72.53977966 179.79110718 C-73.77386691 177.583544 -74.99520887 175.36922134 -76.21531677 173.15390015 C-76.7531781 172.18049683 -77.29103943 171.20709351 -77.84519958 170.20419312 C-79.6213616 166.9828586 -81.38860364 163.75679265 -83.15281677 160.52890015 C-84.02257141 158.94613281 -84.02257141 158.94613281 -84.90989685 157.33139038 C-85.45283386 156.33180298 -85.99577087 155.33221558 -86.55516052 154.30233765 C-87.04363464 153.40692261 -87.53210876 152.51150757 -88.03538513 151.58895874 C-90.51355723 146.47468427 -90.46254181 141.61643727 -90.52781677 136.02890015 C-90.55682068 135.22452515 -90.58582458 134.42015015 -90.6157074 133.59140015 C-90.73011718 122.572858 -85.26128799 114.10776662 -79.65281677 104.96640015 C-76.10299359 99.14786315 -72.68892351 93.51837585 -70.21531677 87.15390015 C-69.55531677 87.15390015 -68.89531677 87.15390015 -68.21531677 87.15390015 C-67.98457458 86.33534546 -67.7538324 85.51679077 -67.51609802 84.6734314 C-65.93403452 80.39283314 -63.76522723 76.73049729 -61.40281677 72.84140015 C-60.49581249 71.32492395 -59.58955399 69.80800142 -58.68406677 68.2906189 C-58.2535199 67.57180542 -57.82297302 66.85299194 -57.37937927 66.11239624 C-54.7543542 61.69587965 -52.30048447 57.18462333 -49.87937927 52.65390015 C-49.43336365 51.82890015 -48.98734802 51.00390015 -48.52781677 50.15390015 C-48.13207458 49.41140015 -47.7363324 48.66890015 -47.32859802 47.90390015 C-46.21531677 46.15390015 -46.21531677 46.15390015 -44.21531677 45.15390015 C-43.51129623 43.50266506 -42.85092002 41.83265883 -42.21531677 40.15390015 C-21.92611657 0.12993422 -21.92611657 0.12993422 0 0 Z M21.78468323 70.15390015 C21.37854797 70.8910022 20.97241272 71.62810425 20.55397034 72.38754272 C18.61051514 75.91408995 16.66649958 79.44032765 14.72218323 82.96640015 C14.36686523 83.61084076 14.01154724 84.25528137 13.64546204 84.91925049 C9.59231492 92.26928929 5.53280961 99.61569004 1.45265198 106.95077515 C0.93803658 107.87602242 0.93803658 107.87602242 0.4130249 108.81996155 C-1.22871391 111.77099756 -2.87181159 114.72126391 -4.51634216 117.67074585 C-5.10536316 118.72866333 -5.69438416 119.78658081 -6.30125427 120.8765564 C-7.07541687 122.26499756 -7.07541687 122.26499756 -7.86521912 123.68148804 C-11.20645413 129.80023794 -12.21288649 134.10743041 -11.21531677 141.15390015 C-9.67751924 145.42219645 -7.47357291 149.22807861 -5.21531677 153.15390015 C-4.51337004 154.42322871 -3.81429455 155.6941481 -3.11766052 156.96640015 C-1.4984863 159.91507823 0.1375011 162.85359122 1.78468323 165.78671265 C3.75661839 169.30278712 5.70897062 172.82900885 7.64758301 176.36357117 C8.9995274 178.82810939 10.35542877 181.29046157 11.71147156 183.75274658 C12.38220765 184.97292771 13.05123127 186.19405183 13.7184906 187.4161377 C14.66157766 189.14253102 15.61167806 190.86508743 16.56202698 192.5874939 C17.11108704 193.58837036 17.66014709 194.58924683 18.22584534 195.62045288 C19.58692162 197.83249494 20.85435481 199.44131887 22.78468323 201.15390015 C24.55850323 198.11396604 26.32819546 195.07164834 28.09718323 192.02890015 C28.59669495 191.17296265 29.09620667 190.31702515 29.6108551 189.43515015 C34.66220526 181.74767508 34.66220526 181.74767508 36.78468323 173.15390015 C37.44468323 173.15390015 38.10468323 173.15390015 38.78468323 173.15390015 C40.12568372 170.72034344 41.45763179 168.28254713 42.78468323 165.84140015 C43.35702698 164.80596069 43.35702698 164.80596069 43.94093323 163.74960327 C46.18468015 159.6871251 46.18468015 159.6871251 46.78468323 155.15390015 C47.44468323 155.15390015 48.10468323 155.15390015 48.78468323 155.15390015 C50.1359776 152.64133717 51.46542527 150.12072073 52.78468323 147.59140015 C53.16624573 146.88692749 53.54780823 146.18245483 53.94093323 145.45663452 C56.31626094 140.85443709 57.52459156 137.44153774 56.78468323 132.15390015 C55.65051337 129.52532783 54.52420312 127.22894054 53.09718323 124.77890015 C52.73068665 124.1226062 52.36419006 123.46631226 51.98658752 122.79013062 C50.93116338 120.90436506 49.85864799 119.02914331 48.78468323 117.15390015 C47.88678438 115.53004054 46.99053805 113.90526405 46.09718323 112.27890015 C45.32665272 110.90373042 44.55578609 109.52874901 43.78468323 108.15390015 C39.79070698 100.99019768 35.83851995 93.80374293 31.89015198 86.61483765 C28.87018765 81.11935326 25.83501549 75.63258803 22.78468323 70.15390015 C22.45468323 70.15390015 22.12468323 70.15390015 21.78468323 70.15390015 Z " fill="#FECC96" transform="translate(90.21531677246094,-0.153900146484375)"/>
<path d="M0 0 C8.13722333 -0.11655565 16.27408995 -0.20504616 24.41194534 -0.25906086 C28.19192529 -0.28500339 31.97132845 -0.32011376 35.75097656 -0.37719727 C39.40798241 -0.43207422 43.06443839 -0.46153546 46.72182465 -0.47438622 C48.10753775 -0.48352761 49.49322545 -0.50137487 50.87870026 -0.52865028 C62.32096953 -0.74466935 72.67914636 1.06629368 81.3359375 9.13671875 C86.1772792 13.8206734 89.42627943 18.92440612 92.625 24.8125 C93.20709229 25.84584473 93.78918457 26.87918945 94.38891602 27.94384766 C95.63156606 30.151063 96.86684008 32.36244505 98.09521484 34.57763672 C100.9926297 39.78347644 103.96386545 44.94680137 106.92868042 50.1144104 C108.2823213 52.47678133 109.63081122 54.84207306 110.97920227 57.20744324 C115.15141727 64.52614951 119.35067937 71.82900234 123.5625 79.125 C124.16860107 80.17655273 124.77470215 81.22810547 125.39916992 82.31152344 C128.29083565 87.32481885 131.19086727 92.33285959 134.11558533 97.32693481 C135.15836146 99.10858532 136.19858666 100.89170048 137.23803711 102.67529297 C138.54235245 104.9116691 139.85147015 107.14525399 141.16625977 109.37548828 C146.24530397 118.10125709 149.5287948 125.14998208 149.4375 135.375 C149.45748047 136.16132813 149.47746094 136.94765625 149.49804688 137.7578125 C149.48874117 149.14799435 143.33379414 158.31540622 137.75 167.875 C137.0398382 169.1021405 136.33038016 170.32968852 135.62158203 171.55761719 C134.15105965 174.10406828 132.67755287 176.64875762 131.20214844 179.19238281 C129.07975974 182.85620503 126.97762871 186.53129481 124.8828125 190.2109375 C124.55013367 190.79523026 124.21745483 191.37952301 123.87469482 191.98152161 C123.20728509 193.15385199 122.53990619 194.32619992 121.87255859 195.49856567 C115.98719108 205.83162757 110.0465622 216.13158759 104.01831055 226.38208008 C101.20769124 231.16993035 98.44583604 235.97503646 95.77734375 240.84375 C87.95732656 255.06229641 81.04775871 265.6507471 65 271 C62.86848273 271.08942453 60.73421849 271.11758899 58.60083008 271.11352539 C57.63456947 271.11374443 57.63456947 271.11374443 56.64878845 271.1139679 C54.52233498 271.11327195 52.3959694 271.10549448 50.26953125 271.09765625 C48.79408313 271.09579094 47.31863439 271.09436757 45.84318542 271.09336853 C41.96174405 271.08955226 38.08034015 271.07972956 34.19891357 271.06866455 C30.23743192 271.05843131 26.27594419 271.05386681 22.31445312 271.04882812 C14.54295167 271.0381065 6.77148109 271.02104075 -1 271 C0.35265972 267.56076054 1.82035243 264.32075612 3.58203125 261.0703125 C4.09483643 260.12260986 4.6076416 259.17490723 5.13598633 258.19848633 C5.68923584 257.18423584 6.24248535 256.16998535 6.8125 255.125 C7.39217529 254.05854248 7.97185059 252.99208496 8.5690918 251.89331055 C12.93745838 243.88355578 17.40192558 235.93144888 21.91137695 228.00048828 C26.69044765 219.58391493 31.36497408 211.11153188 36.02792358 202.63037109 C39.98822547 195.42935082 43.974621 188.24521228 48.03833008 181.10180664 C50.14255531 177.40265704 52.23278387 173.69574522 54.31884766 169.98632812 C55.51550579 167.86063508 56.71612575 165.73717025 57.91943359 163.61523438 C59.90518349 160.10936142 61.85922311 156.586568 63.8125 153.0625 C64.43012207 151.97815674 65.04774414 150.89381348 65.68408203 149.77661133 C69.7487785 142.37069491 71.2505993 138.01675074 69.17041016 129.67211914 C68.00831215 126.02607908 66.57118373 122.92932246 64.76171875 119.5625 C64.44482086 118.96913849 64.12792297 118.37577698 63.80142212 117.76443481 C62.77039613 115.83912892 61.72932177 113.91948238 60.6875 112 C59.96152505 110.65104442 59.23586136 109.30192129 58.51049805 107.95263672 C53.69762425 99.02407645 48.76146258 90.16882012 43.73413086 81.35913086 C39.24075208 73.47568005 34.91454003 65.50787042 30.6105957 57.51977539 C26.76511811 50.38977844 22.84167685 43.30938616 18.84765625 36.26171875 C17.36280508 33.64046986 15.89316345 31.01248923 14.4375 28.375 C12.66183576 25.16277407 10.84004348 21.97876062 9.00805664 18.79833984 C0 3.14055017 0 3.14055017 0 0 Z " fill="#F3921D" transform="translate(151,0)"/>
<path d="M0 0 C1.47531112 2.45885187 2.78573519 4.87778613 4.0625 7.4375 C4.87203687 9.01257358 5.68328811 10.586767 6.49609375 12.16015625 C6.9122998 12.96984863 7.32850586 13.77954102 7.75732422 14.61376953 C9.64532178 18.23916995 11.62884463 21.80831578 13.625 25.375 C14.02138672 26.08591797 14.41777344 26.79683594 14.82617188 27.52929688 C16.84461237 31.14760725 18.86763915 34.7633507 20.89013672 38.37939453 C22.60687507 41.44961935 24.32085698 44.52137277 26.03363037 47.59381104 C26.71658654 48.81763834 27.40053824 50.04091066 28.08551025 51.26361084 C29.05020831 52.98564305 30.01149944 54.70958248 30.97265625 56.43359375 C31.53218994 57.43447021 32.09172363 58.43534668 32.66821289 59.46655273 C34 62 34 62 35 65 C33.8828125 67.57421875 33.8828125 67.57421875 32.125 70.6875 C31.65074081 71.53762413 31.65074081 71.53762413 31.16690063 72.40492249 C30.12060423 74.27536297 29.06033946 76.13749043 28 78 C27.27292003 79.29427601 26.54685699 80.58912379 25.82177734 81.88452148 C24.31542601 84.57276683 22.80383291 87.25795951 21.28808594 89.94091797 C18.03198008 95.70917811 14.82006104 101.50191839 11.60693359 107.29418945 C10.63952773 109.0363378 9.66939362 110.77697027 8.69921875 112.51757812 C8.11011719 113.57525391 7.52101563 114.63292969 6.9140625 115.72265625 C6.3979541 116.64828369 5.8818457 117.57391113 5.35009766 118.52758789 C2.00886264 124.6463378 1.00243028 128.95353027 2 136 C3.53779753 140.26829631 5.74174386 144.07417847 8 148 C8.70194673 149.26932857 9.40102223 150.54024796 10.09765625 151.8125 C12.70420836 156.55716096 15.35295431 161.27784646 18 166 C20.33077964 170.16102963 22.65867102 174.323633 24.98171997 178.48898315 C25.98469805 180.28509755 26.99120553 182.0792031 27.99780273 183.87329102 C28.92701538 185.53896118 28.92701538 185.53896118 29.875 187.23828125 C30.42929688 188.22868408 30.98359375 189.21908691 31.5546875 190.23950195 C35.22083868 197.24172685 35.22083868 197.24172685 34.40429688 200.04541016 C34.01306641 200.70331543 33.62183594 201.3612207 33.21875 202.0390625 C32.78820312 202.78542969 32.35765625 203.53179687 31.9140625 204.30078125 C31.44742188 205.06777344 30.98078125 205.83476562 30.5 206.625 C29.61391792 208.13763124 28.72850985 209.65065749 27.84375 211.1640625 C27.3796875 211.94692627 26.915625 212.72979004 26.4375 213.53637695 C20.72863863 223.32036475 15.54197209 233.42323572 10.2109375 243.41601562 C6.64878234 250.0577873 2.9505658 256.581235 -1 263 C-6.15138296 260.26661312 -10.97390359 257.28308129 -15 253 C-15 252.34 -15 251.68 -15 251 C-15.66 250.67 -16.32 250.34 -17 250 C-18.08099919 248.26524003 -19.09258562 246.48672691 -20.0625 244.6875 C-20.85333984 243.23923828 -20.85333984 243.23923828 -21.66015625 241.76171875 C-22.77926558 239.45498319 -23.51890769 237.50049214 -24 235 C-24.66 235 -25.32 235 -26 235 C-26.43570313 234.10539063 -26.87140625 233.21078125 -27.3203125 232.2890625 C-30.45348547 225.9074938 -33.67282887 219.67406753 -37.40625 213.6171875 C-39.66784377 209.90329577 -41.80534842 206.12037966 -43.95092773 202.33886719 C-45.63216836 199.38040186 -47.3276966 196.43294552 -49.06640625 193.5078125 C-50.02353516 191.89519531 -50.02353516 191.89519531 -51 190.25 C-51.5775 189.28578125 -52.155 188.3215625 -52.75 187.328125 C-54 185 -54 185 -54 183 C-54.66 182.67 -55.32 182.34 -56 182 C-57.16650992 180.18440845 -58.25525123 178.31881419 -59.3125 176.4375 C-59.64644775 175.84340332 -59.98039551 175.24930664 -60.32446289 174.63720703 C-61.55855014 172.42964385 -62.77989209 170.21532119 -64 168 C-64.53786133 167.02659668 -65.07572266 166.05319336 -65.62988281 165.05029297 C-67.40604483 161.82895846 -69.17328686 158.6028925 -70.9375 155.375 C-71.80725464 153.79223267 -71.80725464 153.79223267 -72.69458008 152.17749023 C-73.23751709 151.17790283 -73.7804541 150.17831543 -74.33984375 149.1484375 C-74.82831787 148.25302246 -75.31679199 147.35760742 -75.82006836 146.43505859 C-78.29824046 141.32078412 -78.24722503 136.46253713 -78.3125 130.875 C-78.34150391 130.070625 -78.37050781 129.26625 -78.40039062 128.4375 C-78.51480041 117.41895786 -73.04597122 108.95386647 -67.4375 99.8125 C-63.88767682 93.993963 -60.47360674 88.3644757 -58 82 C-57.34 82 -56.68 82 -56 82 C-55.76925781 81.18144531 -55.53851563 80.36289063 -55.30078125 79.51953125 C-53.71871775 75.238933 -51.54991045 71.57659714 -49.1875 67.6875 C-48.28049571 66.1710238 -47.37423722 64.65410128 -46.46875 63.13671875 C-46.03820312 62.41790527 -45.60765625 61.6990918 -45.1640625 60.95849609 C-42.53903743 56.5419795 -40.0851677 52.03072318 -37.6640625 47.5 C-37.21804687 46.675 -36.77203125 45.85 -36.3125 45 C-35.91675781 44.2575 -35.52101562 43.515 -35.11328125 42.75 C-34 41 -34 41 -32 40 C-31.29597946 38.34876492 -30.63560325 36.67875869 -30 35 C-10.48574664 -3.49524888 -10.48574664 -3.49524888 0 0 Z " fill="#F0901D" transform="translate(78,5)"/>
<path d="M0 0 C2.31 0 4.62 0 7 0 C7.82011312 1.55851755 8.63076213 3.12201716 9.4375 4.6875 C9.88996094 5.55761719 10.34242188 6.42773438 10.80859375 7.32421875 C11.95991928 9.90998264 12.56320753 12.21356528 13 15 C9.47967572 15 8.5614657 14.29648649 6 12 C6 11.34 6 10.68 6 10 C5.34 10 4.68 10 4 10 C3.67 8.35 3.34 6.7 3 5 C2.34 5 1.68 5 1 5 C0.67 3.35 0.34 1.7 0 0 Z " fill="#FEECCE" transform="translate(144,0)"/>
<path d="M0 0 C0.66 0.33 1.32 0.66 2 1 C1.28972656 1.69867187 0.57945313 2.39734375 -0.15234375 3.1171875 C-1.07144531 4.02726562 -1.99054687 4.93734375 -2.9375 5.875 C-4.31228516 7.23238281 -4.31228516 7.23238281 -5.71484375 8.6171875 C-8.01187627 10.77682255 -8.01187627 10.77682255 -9 13 C-9.66 13 -10.32 13 -11 13 C-9.94124926 9.59687262 -8.99097846 6.98646769 -7 4 C-5.34795544 3.29788106 -3.68076231 2.63028587 -2 2 C-1.34 1.34 -0.68 0.68 0 0 Z " fill="#F5A12D" transform="translate(60,27)"/>
<path d="M0 0 C-2.85306797 2.32472205 -5.54074837 3.7508258 -9 5 C-9.33 4.01 -9.66 3.02 -10 2 C-6.49223216 0.39644899 -3.85645121 -0.22036864 0 0 Z " fill="#FEDEB5" transform="translate(87,1)"/>
</svg>
